<?xml version="1.0" encoding="iso-8859-1"?>
<!-- Generator: Adobe Illustrator 17.0.0, SVG Export Plug-In . SVG Version: 6.00 Build 0)  -->
<!DOCTYPE svg PUBLIC "-//W3C//DTD SVG 1.1//EN" "http://www.w3.org/Graphics/SVG/1.1/DTD/svg11.dtd">
<svg version="1.1" xmlns="http://www.w3.org/2000/svg" xmlns:xlink="http://www.w3.org/1999/xlink" x="0px" y="0px" width="480px"
	 height="375px" viewBox="0 0 480 375" style="enable-background:new 0 0 480 375;" xml:space="preserve">
<g id="bg">
</g>
<g id="earth">
</g>
<g id="_x34_04">
</g>
<g id="ufo" style="display:none;">
</g>
<g id="house" style="display:none;">
</g>
<g id="ground">
</g>
<g id="sun">
</g>
<g id="cactus">
</g>
<g id="hat">
</g>
<g id="cloth">
</g>
<g id="tie_2_">
</g>
<g id="no_result_text">
</g>
<g id="pencil">
</g>
<g id="koala">
	<g id="body">
	</g>
</g>
<g id="about_us" style="display:none;">
</g>
<g id="send_success">
	<g id="k">
		<g id="email">
			<g id="&#x56FE;&#x5C42;_20">
			</g>
		</g>
		<path style="display:none;fill:#00C4E7;" d="M466.514,316.268c-0.466-1.76-0.873-3.421-1.263-4.973
			c12.381-3.756,20.826-11.336,20.826-20.076c0-6.347-4.661-12.082-11.859-16.186c0.698-2.336,0.782-4.809,0.782-7.372v-9.946
			c0-7.462-2.885-14.179-7.962-18.876c1.091-1.275,2.133-2.782,2.663-4.477c0.163-0.504,0.355-1.027,0.473-1.557
			c0.116-0.53,0.263-1.069,0.363-1.615c0.198-1.091,0.384-2.208,0.501-3.336c0.12-1.127,0.196-2.268,0.232-3.397
			c0.022-1.132,0.012-2.256-0.05-3.354c-0.132-2.198-0.433-4.292-0.854-6.124c-0.208-0.916-0.435-1.764-0.673-2.524
			c-0.126-0.382-0.242-0.739-0.351-1.069c-0.124-0.334-0.237-0.641-0.34-0.918c-0.116-0.28-0.219-0.53-0.309-0.748
			c-0.099-0.22-0.203-0.323-0.272-0.475c-0.154-0.307-0.255-0.387-0.255-0.387l-0.334-0.078c0,0-0.127,0.027-0.401,0.233
			c-0.129,0.105-0.278,0.193-0.465,0.345c-0.177,0.155-0.376,0.312-0.605,0.511c-0.215,0.202-0.452,0.416-0.711,0.659
			c-0.244,0.247-0.507,0.51-0.79,0.795c-0.551,0.575-1.133,1.23-1.727,1.957c-1.193,1.453-2.397,3.191-3.495,5.1
			c-0.544,0.956-1.058,1.954-1.542,2.977c-0.471,1.027-0.919,2.077-1.314,3.14c-0.398,1.062-0.746,2.136-1.054,3.201
			c-0.154,0.533-0.295,1.064-0.428,1.59c-0.13,0.527-0.257,1.048-0.336,1.571c-0.087,0.541-0.133,1.581-0.146,2.118
			c-1.599-0.311-3.249,0.021-4.939,0.021h-4.46c-1.709,0-3.378-0.329-4.994-0.011c-0.013-0.54-0.059-1.334-0.146-1.878
			c-0.079-0.523-0.206-1.169-0.336-1.696c-0.133-0.526-0.274-1.12-0.428-1.653c-0.309-1.065-0.656-2.17-1.054-3.232
			c-0.395-1.063-0.842-2.129-1.314-3.156c-0.485-1.024-0.998-2.03-1.542-2.985c-1.098-1.909-2.302-3.651-3.495-5.104
			c-0.594-0.727-1.175-1.384-1.727-1.959c-0.283-0.286-0.546-0.549-0.79-0.796c-0.26-0.244-0.496-0.458-0.711-0.66
			c-0.228-0.199-0.427-0.356-0.605-0.511c-0.187-0.152-0.336-0.24-0.465-0.346c-0.275-0.206-0.401-0.233-0.401-0.233l-0.334,0.078
			c0,0-0.101,0.08-0.255,0.387c-0.069,0.152-0.173,0.255-0.272,0.475c-0.09,0.218-0.193,0.468-0.309,0.747
			c-0.103,0.277-0.217,0.584-0.341,0.918c-0.109,0.33-0.226,0.687-0.352,1.069c-0.238,0.76-0.466,1.608-0.674,2.524
			c-0.421,1.832-0.724,3.926-0.856,6.124c-0.061,1.098-0.077,2.221-0.054,3.354c0.036,1.129,0.103,2.269,0.223,3.397
			c0.117,1.128,0.284,2.245,0.483,3.336c0.099,0.546,0.21,1.084,0.325,1.615c0.119,0.53,0.237,1.053,0.399,1.557
			c0.512,1.639,1.705,3.081,2.594,4.535c-5.016,5.07-7.986,11.583-7.986,18.818c0,0.001,0,9.946,0,9.946
			c0,2.55,0.229,5.011,0.92,7.337c-7.233,4.106-11.805,9.855-11.805,16.221c0,8.704,8.349,16.257,20.679,20.029
			c-0.393,1.565-0.844,3.242-1.315,5.02"/>
	</g>
	<g style="display:none;">
		<path style="display:inline;fill:#FDFDFD;" d="M447.568,701c-131.833,0-263.667-0.018-395.5,0.094
			c-3.75,0.003-4.596-0.845-4.594-4.594c0.106-197,0.106-394,0-591c-0.002-3.749,0.844-4.595,4.594-4.593
			c263.667,0.103,527.333,0.103,791,0c3.749-0.001,4.596,0.844,4.594,4.593c-0.106,197-0.106,394,0,591
			c0.002,3.749-0.844,4.597-4.594,4.594C711.235,700.981,579.402,701,447.568,701z"/>
	</g>
	<path style="display:none;fill:#00C4E7;" d="M528.151,471.431c-1.058-5.252-5.132-7.233-9.587-8.321
		c-9.192-2.244-18.52-1.509-27.819-0.59c-2.61,0.258-5.666,1.323-7.479-1.154c-1.842-2.515,0.074-5.158,1.339-7.41
		c3.746-6.672,7.928-13.108,11.507-19.865c7.113-13.429,10.63-27.61,7.611-42.869c-2.6-13.138-9.465-24.086-18.066-34.013
		c-12.108-13.974-17.667-30.251-17.939-48.576c-0.006-0.388,0.006-0.736,0.031-1.061c-13.509,0.843-27.076,1.173-40.546-0.268
		c0.986,14.032-1.664,27.66-9.518,40.626c-8.45,13.95-17.456,27.543-22.747,43.158c-1.502,4.433-4.98,6.468-9.723,6.271
		c-4.809-0.2-7.648-2.948-9.193-7.189c-1.76-4.833-1.467-9.821-0.692-14.805c1.4-9.007,6.15-16.409,11.236-23.678
		c4.464-6.38,7.815-13.183,7.319-21.295c-0.399-6.531-4.883-12.941-10.092-14.188c-2.602-0.623-4.923-0.646-3.559,3.227
		c3.727,10.577,0.02,18.735-8.025,25.729c-4.914,4.272-9.146,9.212-12.277,15.01c-14.632,27.092-2.473,62.177,25.869,74.303
		c7.028,3.007,14.281,5.484,21.339,8.422c5.225,2.176,8.716,6.02,9.768,11.768c1.278,6.984-0.508,8.64-7.657,7.856
		c-9.112-1-18.279-1.611-27.331,0.496c-3.955,0.921-7.623,2.584-9.435,6.655c-1.901,4.27-0.723,6.11,3.937,6.115
		c17.665,0.019,35.33,0.008,52.995,0.008c10.529,0,10.528,0,9.722-10.622c-0.038-0.498-0.03-1-0.077-1.497
		c-0.219-2.314,0.762-2.815,2.975-2.394c6.102,1.162,12.236,0.949,18.505-0.217c0.71,3.747,0.304,7.372-0.346,10.948
		c-0.493,2.713,0.012,3.862,3.144,3.844c20.497-0.121,40.996-0.109,61.494-0.016C528.298,475.855,528.708,474.193,528.151,471.431z"
		/>
	<path style="display:none;fill:#FEFEFE;" d="M424.576,377.241c-0.264-1.65,0.589-3.322,2.467-4.936
		c14.816-12.731,42.882-8.701,53.913,7.743c2.568,3.828,2.183,6.45-1.798,8.746c-3.591,2.071-7.488,3.603-11.166,5.532
		c-2.598,1.363-6.391,1.754-5.229,6.433c1.124,4.525,3.529,7.572,8.321,7.979c4.007,0.341,7.951-0.507,11.84-1.453
		c1.77-0.431,3.522-0.936,6.005-1.601c-0.854,10.489-4.697,18.832-11.691,25.806c-1.312,1.309-2.379,1.122-3.959,0.603
		c-15.329-5.037-30.731-5.112-46.065-0.099c-2.271,0.742-3.749,0.59-5.117-1.251c-3.181-4.28-7.621-5.21-12.71-5.545
		c-11.608-0.763-21.715-4.817-28.417-15.049c-0.342-0.522-0.531-1.143-0.845-1.836c19.857,6.282,31.454,0.855,32.157-14.179
		c5.036,2.946,10.115,5.342,15.615,6.63c3.522,0.825,6.893,0.885,9.761-1.95c4.293-4.245,4.109-7.228-0.77-10.736
		c-3.378-2.429-6.867-4.732-10.05-7.398C425.506,379.563,424.762,378.407,424.576,377.241"/>
</g>
<g id="edit">
	
		<image style="display:none;overflow:visible;" width="800" height="600" xlink:href="gday.jpg"  transform="matrix(0.5161 0 0 0.5161 168 105)">
	</image>
</g>
<g id="_x34_04_1_">
	<g id="_x34_">
		<path style="fill:#E74C3C;stroke:#FFFFFF;stroke-width:3;stroke-linecap:round;stroke-linejoin:round;stroke-miterlimit:10;" d="
			M81.5,216.619c0-5.589,5.707-10.119,13-10.119l0,0c7.293,0,13,4.53,13,10.119v132.762c0,5.589-5.707,10.119-13,10.119l0,0
			c-7.293,0-13-4.53-13-10.119V216.619z"/>
		<g>
			<defs>
				<path id="XMLID_3_" d="M28.951,322.5c-4.617,0-8.36-5.707-8.36-13l0,0c0-7.293,3.743-13,8.36-13H138.64
					c4.617,0,8.36,5.707,8.36,13l0,0c0,7.293-3.743,13-8.36,13H28.951z"/>
			</defs>
			<use xlink:href="#XMLID_3_"  style="overflow:visible;fill:#E74C3C;"/>
			<clipPath id="XMLID_7_">
				<use xlink:href="#XMLID_3_"  style="overflow:visible;"/>
			</clipPath>
			
				<use xlink:href="#XMLID_3_"  style="overflow:visible;fill:none;stroke:#FFFFFF;stroke-width:3;stroke-linecap:round;stroke-linejoin:round;stroke-miterlimit:10;"/>
		</g>
		<g>
			<defs>
				<path id="XMLID_1_" d="M37.413,319.454c-2.917,4.252-10.157,4.354-16.171,0.228l0,0c-6.014-4.126-8.524-10.917-5.607-15.169
					l69.301-101.008c2.917-4.252,10.157-4.354,16.171-0.228l0,0c6.014,4.126,8.524,10.917,5.607,15.169L37.413,319.454z"/>
			</defs>
			<use xlink:href="#XMLID_1_"  style="overflow:visible;fill:#E74C3C;"/>
			<clipPath id="XMLID_8_">
				<use xlink:href="#XMLID_1_"  style="overflow:visible;"/>
			</clipPath>
			<path style="display:none;clip-path:url(#XMLID_8_);fill:#FFFFFF;" d="M30.432,302.607c-6.326-1.252-8.267,8.558-1.941,9.81
				C34.817,313.668,36.758,303.858,30.432,302.607z"/>
			
				<use xlink:href="#XMLID_1_"  style="overflow:visible;fill:none;stroke:#FFFFFF;stroke-width:3;stroke-linecap:round;stroke-linejoin:round;stroke-miterlimit:10;"/>
		</g>
	</g>
	<g id="_x34__1_">
		<path style="fill:#E74C3C;stroke:#FFFFFF;stroke-width:3;stroke-linecap:round;stroke-linejoin:round;stroke-miterlimit:10;" d="
			M401.5,216.619c0-5.589,5.707-10.119,13-10.119l0,0c7.293,0,13,4.53,13,10.119v132.762c0,5.589-5.707,10.119-13,10.119l0,0
			c-7.293,0-13-4.53-13-10.119V216.619z"/>
		<g>
			<defs>
				<path id="XMLID_5_" d="M348.951,322.5c-4.617,0-8.36-5.707-8.36-13l0,0c0-7.293,3.743-13,8.36-13H458.64
					c4.617,0,8.36,5.707,8.36,13l0,0c0,7.293-3.743,13-8.36,13H348.951z"/>
			</defs>
			<use xlink:href="#XMLID_5_"  style="overflow:visible;fill:#E74C3C;"/>
			<clipPath id="XMLID_9_">
				<use xlink:href="#XMLID_5_"  style="overflow:visible;"/>
			</clipPath>
			
				<use xlink:href="#XMLID_5_"  style="overflow:visible;fill:none;stroke:#FFFFFF;stroke-width:3;stroke-linecap:round;stroke-linejoin:round;stroke-miterlimit:10;"/>
		</g>
		<g>
			<defs>
				<path id="XMLID_4_" d="M357.413,319.454c-2.917,4.252-10.157,4.354-16.171,0.228l0,0c-6.014-4.126-8.524-10.917-5.607-15.169
					l69.301-101.008c2.917-4.252,10.157-4.354,16.171-0.228l0,0c6.014,4.126,8.524,10.917,5.607,15.169L357.413,319.454z"/>
			</defs>
			<use xlink:href="#XMLID_4_"  style="overflow:visible;fill:#E74C3C;"/>
			<clipPath id="XMLID_10_">
				<use xlink:href="#XMLID_4_"  style="overflow:visible;"/>
			</clipPath>
			<path style="display:none;clip-path:url(#XMLID_10_);fill:#FFFFFF;" d="M350.432,302.607c-6.326-1.252-8.267,8.558-1.941,9.81
				C354.817,313.668,356.758,303.858,350.432,302.607z"/>
			
				<use xlink:href="#XMLID_4_"  style="overflow:visible;fill:none;stroke:#FFFFFF;stroke-width:3;stroke-linecap:round;stroke-linejoin:round;stroke-miterlimit:10;"/>
		</g>
	</g>
	<g>
		<defs>
			<circle id="_x30_" cx="241.97" cy="279.883" r="77.447"/>
		</defs>
		<use xlink:href="#_x30_"  style="overflow:visible;fill:#E74C3C;"/>
		<clipPath id="_x30__1_">
			<use xlink:href="#_x30_"  style="overflow:visible;"/>
		</clipPath>
		<circle style="clip-path:url(#_x30__1_);fill:#FFFFFF;" cx="241.97" cy="279.883" r="52.45"/>
		
			<use xlink:href="#_x30_"  style="overflow:visible;fill:none;stroke:#FFFFFF;stroke-width:3;stroke-linecap:round;stroke-linejoin:round;stroke-miterlimit:10;"/>
	</g>
	<linearGradient id="light_2_" gradientUnits="userSpaceOnUse" x1="241.9704" y1="221.5334" x2="241.9704" y2="119">
		<stop  offset="0" style="stop-color:#FFFFFF"/>
		<stop  offset="1" style="stop-color:#E74C3C;stop-opacity:0.8"/>
	</linearGradient>
	<path id="light_1_" style="fill:url(#light_2_);" d="M215,119.58c0,0,1.652-0.58,27.992-0.58c26.341,0,26.341,0,26.341,0
		l31.198,102.533c0,0-30.414-16.621-58.532-16.621s-58.591,16.569-58.591,16.569L215,119.58z"/>
	<g id="ufo_1_">
		<path style="fill:none;stroke:#E74C3C;stroke-width:14;stroke-linecap:round;stroke-linejoin:round;stroke-miterlimit:10;" d="
			M242.014,89.193c-38.654,0-64.423-14.085-64.423-14.085s28.53-48.727,64.423-48.727s64.423,48.727,64.423,48.727
			S280.668,89.193,242.014,89.193z"/>
		<path style="fill:none;stroke:#E74C3C;stroke-width:14;stroke-linecap:round;stroke-linejoin:round;stroke-miterlimit:10;" d="
			M288.105,51.904C276.455,38.535,260.182,25,242.014,25c-18.161,0-34.429,13.526-46.079,26.89
			c-45.541,5.162-77.705,17.754-77.705,32.471c0,19.315,55.396,34.972,123.732,34.972c68.335,0,123.731-15.658,123.731-34.972
			C365.694,69.657,333.584,57.074,288.105,51.904z"/>
	</g>
	<g id="store">
		
			<path style="fill:none;stroke:#E74C3C;stroke-width:2.9337;stroke-linecap:round;stroke-linejoin:round;stroke-miterlimit:10;" d="
			M233.239,179.347l-11.772-6.616l8.27-14.715l-1.289-4.597l15.364-7.024l17.799,10.003l2.153,16.869l-4.339,0.83l-8.528,15.174
			l-11.772-6.616l0,0c0,0-5.521-10.848-2.213-16.734c3.308-5.886,9.194-2.578,9.194-2.578s5.886,3.308,2.578,9.194
			C245.376,178.423,233.239,179.347,233.239,179.347z"/>
		
			<ellipse transform="matrix(0.8718 0.4899 -0.4899 0.8718 113.7335 -97.4359)" style="fill:#E74C3C;" cx="242.99" cy="168.538" rx="3.205" ry="3.054"/>
	</g>
</g>
<g id="not_found">
</g>
<g id="_x35_00">
</g>
</svg>
