<?xml version="1.0" encoding="iso-8859-1"?>
<!-- Generator: Adobe Illustrator 17.0.0, SVG Export Plug-In . SVG Version: 6.00 Build 0)  -->
<!DOCTYPE svg PUBLIC "-//W3C//DTD SVG 1.1//EN" "http://www.w3.org/Graphics/SVG/1.1/DTD/svg11.dtd">
<svg version="1.1" xmlns="http://www.w3.org/2000/svg" xmlns:xlink="http://www.w3.org/1999/xlink" x="0px" y="0px" width="480px"
	 height="281px" viewBox="0 0 480 281" style="enable-background:new 0 0 480 281;" xml:space="preserve">
<g id="bg">
</g>
<g id="earth">
</g>
<g id="_x34_04">
</g>
<g id="ufo" style="display:none;">
</g>
<g id="house" style="display:none;">
</g>
<g id="ground">
</g>
<g id="sun">
</g>
<g id="cactus">
</g>
<g id="hat">
</g>
<g id="cloth">
</g>
<g id="tie_2_">
</g>
<g id="no_result_text">
</g>
<g id="pencil">
</g>
<g id="koala">
	<g id="body">
	</g>
</g>
<g id="about_us" style="display:none;">
</g>
<g id="send_success">
	<g id="k">
		<g id="email">
			<g id="&#x56FE;&#x5C42;_20">
			</g>
		</g>
	</g>
	<g style="display:none;">
		<path style="display:inline;fill:#FDFDFD;" d="M447.568,301c-131.833,0-263.667-0.018-395.5,0.094
			c-3.75,0.003-4.596-0.845-4.594-4.594c0.106-197,0.106-394,0-591c-0.002-3.749,0.844-4.595,4.594-4.593
			c263.667,0.103,527.333,0.103,791,0c3.749-0.001,4.596,0.844,4.594,4.593c-0.106,197-0.106,394,0,591
			c0.002,3.749-0.844,4.597-4.594,4.594C711.235,300.981,579.402,301,447.568,301z"/>
		<path style="display:inline;fill:#474B7D;" d="M420.572,128.775c0-4.996,0.079-9.144-0.033-13.288
			c-0.057-2.103,0.633-2.93,2.819-2.93c2.213-0.001,3.285,0.469,3.257,3.007c-0.116,10.459-0.018,20.919-0.067,31.379
			c-0.013,2.792-3.397,4.65-5.198,2.565c-1.444-1.672-1.746-1.23-3.149-0.462c-5.376,2.943-11.294,1.785-14.695-2.676
			c-3.713-4.871-3.518-12.612,0.431-17.091c3.603-4.087,9.271-4.822,14.487-1.869C418.967,127.717,419.481,128.079,420.572,128.775z
			"/>
		<path style="display:inline;fill:#484C7D;" d="M439.393,128.508c6.717-3.909,11.844-3.677,15.78,0.243
			c4.093,4.075,4.826,11.534,1.638,16.661c-2.61,4.197-7.407,6.107-12.039,5.001c-2.632-0.628-4.938-3.518-8.193-0.565
			c-1.236,1.121-3.275,0.086-3.24-2.644c0.137-10.498,0.111-20.999,0.015-31.497c-0.022-2.401,0.799-3.163,3.176-3.157
			c2.662,0.007,2.923,1.42,2.884,3.498C439.34,120.03,439.393,124.015,439.393,128.508z"/>
		<path style="display:inline;fill:#474B7D;" d="M331.178,114.829c2.827,0.002,5.656,0.046,8.482-0.014
			c1.782-0.038,2.729,0.457,2.777,2.507c0.052,2.219-0.82,2.935-2.922,2.874c-3.324-0.097-6.677,0.236-9.972-0.086
			c-4.363-0.427-3.785,2.348-3.829,5.036c-0.045,2.765-0.423,5.404,3.865,4.92c2.956-0.334,5.981-0.032,8.974-0.074
			c1.658-0.024,2.851,0.135,2.886,2.339c0.035,2.225-0.832,2.939-2.928,2.865c-2.824-0.1-5.678,0.212-8.475-0.079
			c-3.662-0.381-4.676,1.177-4.337,4.545c0.232,2.305-0.1,4.664,0.081,6.978c0.201,2.561-0.627,3.471-3.319,3.451
			c-2.602-0.02-2.944-1.125-2.925-3.299c0.083-9.48,0.141-18.962-0.028-28.439c-0.052-2.898,0.924-3.784,3.691-3.568
			C325.843,114.988,328.517,114.827,331.178,114.829z"/>
		<path style="display:inline;fill:#484C7D;" d="M358.568,139.997c-1.826,0.004-3.658-0.08-5.476,0.036
			c-1.026,0.066-2.611-0.702-2.901,0.945c-0.202,1.148,0.758,2.14,1.678,2.898c2.919,2.403,6.271,2.843,9.125,0.506
			c2.354-1.927,3.77-0.792,4.868,0.752c1.49,2.093-0.907,2.841-2.07,3.637c-4.692,3.216-12.067,2.536-16.198-1.313
			c-4.205-3.918-5.023-10.645-1.95-16.03c2.658-4.657,8.574-6.906,14.294-5.433c4.896,1.26,8.494,6.674,8.053,11.788
			c-0.15,1.742-0.85,2.271-2.452,2.227C363.218,139.946,360.892,139.993,358.568,139.997z"/>
		<path style="display:inline;fill:#484C7D;" d="M387.055,139.997c-1.992,0.004-3.986-0.037-5.976,0.022
			c-0.937,0.028-2.195-0.466-2.727,0.523c-0.656,1.219,0.345,2.208,1.173,2.988c2.921,2.75,6.41,3.289,9.475,0.841
			c2.379-1.9,3.781-0.765,4.867,0.771c1.477,2.088-0.918,2.838-2.084,3.635c-4.697,3.212-12.069,2.527-16.196-1.326
			c-4.204-3.924-5.017-10.648-1.938-16.032c2.661-4.653,8.584-6.898,14.3-5.422c4.891,1.263,8.49,6.693,8.042,11.797
			c-0.154,1.751-0.87,2.261-2.463,2.215C391.373,139.946,389.214,139.993,387.055,139.997z"/>
		<path style="display:inline;fill:#484B7D;" d="M485.569,140.914c0,0.996,0,1.992,0,2.987c-0.001,6.053,0.01,6.001-6.217,4.655
			c-0.734-0.159-1.666,0.646-2.517,0.975c-3.076,1.187-6.162,1.274-9.169-0.163c-2.608-1.246-4.064-3.321-4.087-6.294
			c-0.022-2.814,1.454-4.733,3.807-5.95c3.004-1.555,6.316-1.914,9.648-2.133c0.885-0.058,2.145,0.466,2.492-0.89
			c0.336-1.316-0.516-2.283-1.523-2.874c-2.692-1.577-5.524-1.389-8.007,0.294c-1.793,1.216-2.864,1.008-3.99-0.672
			c-1.542-2.301,0.46-2.93,1.798-3.667c9.254-5.094,17.719-0.19,17.764,10.245C485.573,138.59,485.569,139.752,485.569,140.914z"/>
		<path style="display:inline;fill:#FCFCFC;" d="M413.669,130.456c3.804,0.007,6.972,3.366,7.062,7.486
			c0.094,4.32-3.235,7.968-7.173,7.861c-3.755-0.102-6.812-3.591-6.799-7.761C406.772,133.822,409.844,130.449,413.669,130.456z"/>
		<path style="display:inline;fill:#FDFDFD;" d="M452.73,137.87c0.083,4.401-2.666,7.761-6.483,7.922
			c-3.66,0.154-7.045-3.309-7.217-7.385c-0.166-3.943,3.026-7.688,6.723-7.888C449.636,130.309,452.647,133.482,452.73,137.87z"/>
		<path style="display:inline;fill:#F2F2F5;" d="M355.829,136.125c-1.727-1.273-5.336,1.46-5.405-1.847
			c-0.064-3.079,3.151-4.325,6.231-4.272c2.797,0.048,5.367,1.463,4.943,4.269C361.096,137.6,357.717,134.919,355.829,136.125z"/>
		<path style="display:inline;fill:#F2F2F5;" d="M383.244,136.103c-1.671-0.976-4.842,1.133-4.904-1.525
			c-0.074-3.16,2.923-4.493,6.007-4.576c2.773-0.074,5.542,1.193,5.218,3.968C389.076,138.161,385.204,134.659,383.244,136.103z"/>
		<path style="display:inline;fill:#F8F8FA;" d="M473.991,146.034c-2.204-0.116-4.635-0.59-4.266-3.094
			c0.567-3.837,4.139-3.658,7.055-3.91c1.358-0.117,3.235-0.54,2.877,2.017C479.188,144.4,477.1,145.846,473.991,146.034z"/>
	</g>
	<path style="display:none;fill:#00C4E7;" d="M528.151,71.431c-1.058-5.252-5.132-7.233-9.587-8.321
		c-9.192-2.244-18.52-1.509-27.819-0.59c-2.61,0.258-5.666,1.323-7.479-1.154c-1.842-2.515,0.074-5.158,1.339-7.41
		c3.746-6.672,7.928-13.108,11.507-19.865c7.113-13.429,10.63-27.61,7.611-42.869c-2.6-13.138-9.465-24.086-18.066-34.013
		c-12.108-13.974-17.667-30.251-17.939-48.576c-0.006-0.388,0.006-0.736,0.031-1.061c-13.509,0.843-27.076,1.173-40.546-0.268
		c0.986,14.032-1.664,27.66-9.518,40.626c-8.45,13.95-17.456,27.543-22.747,43.158c-1.502,4.433-4.98,6.468-9.723,6.271
		c-4.809-0.2-7.648-2.948-9.193-7.189c-1.76-4.833-1.467-9.821-0.692-14.805c1.4-9.007,6.15-16.409,11.236-23.678
		c4.464-6.38,7.815-13.183,7.319-21.295c-0.399-6.531-4.883-12.941-10.092-14.188c-2.602-0.623-4.923-0.646-3.559,3.227
		c3.727,10.577,0.02,18.735-8.025,25.729c-4.914,4.272-9.146,9.212-12.277,15.01c-14.632,27.092-2.473,62.177,25.869,74.303
		c7.028,3.007,14.281,5.484,21.339,8.422c5.225,2.176,8.716,6.02,9.768,11.768c1.278,6.984-0.508,8.64-7.657,7.856
		c-9.112-1-18.279-1.611-27.331,0.496c-3.955,0.921-7.623,2.584-9.435,6.655c-1.901,4.27-0.723,6.11,3.937,6.115
		c17.665,0.019,35.33,0.008,52.995,0.008c10.529,0,10.528,0,9.722-10.622c-0.038-0.498-0.03-1-0.077-1.497
		c-0.219-2.314,0.762-2.815,2.975-2.394c6.102,1.162,12.236,0.949,18.505-0.217c0.71,3.747,0.304,7.372-0.346,10.948
		c-0.493,2.713,0.012,3.862,3.144,3.844c20.497-0.121,40.996-0.109,61.494-0.016C528.298,75.855,528.708,74.193,528.151,71.431z"/>
	<path style="display:none;fill:#FEFEFE;" d="M424.576-22.759c-0.264-1.65,0.589-3.322,2.467-4.936
		c14.816-12.731,42.882-8.701,53.913,7.743c2.568,3.828,2.183,6.45-1.798,8.746c-3.591,2.071-7.488,3.603-11.166,5.532
		c-2.598,1.363-6.391,1.754-5.229,6.433c1.124,4.525,3.529,7.572,8.321,7.979c4.007,0.341,7.951-0.507,11.84-1.453
		c1.77-0.431,3.522-0.936,6.005-1.601c-0.854,10.489-4.697,18.832-11.691,25.806c-1.312,1.309-2.379,1.122-3.959,0.603
		c-15.329-5.037-30.731-5.112-46.065-0.099c-2.271,0.742-3.749,0.59-5.117-1.251c-3.181-4.28-7.621-5.21-12.71-5.545
		c-11.608-0.763-21.715-4.817-28.417-15.049c-0.342-0.522-0.531-1.143-0.845-1.836c19.857,6.282,31.454,0.855,32.157-14.179
		c5.036,2.946,10.115,5.342,15.615,6.63c3.522,0.825,6.893,0.885,9.761-1.95c4.293-4.245,4.109-7.228-0.77-10.736
		c-3.378-2.429-6.867-4.732-10.05-7.398C425.506-20.437,424.762-21.593,424.576-22.759"/>
	
		<rect x="438.231" y="17.793" transform="matrix(0.7067 0.7075 -0.7075 0.7067 145.9458 -303.3324)" style="display:none;fill:#FFFFFF;" width="1.163" height="13.123"/>
	<polygon style="display:none;fill:#FFFFFF;" points="464.416,29.406 455.136,20.127 455.958,19.304 465.238,28.583 464.416,29.407 
			"/>
	<polygon style="display:none;fill:#FFFFFF;" points="450.625,21.908 449.5,21.908 448.375,21.908 433.753,8.352 435.184,6.921 
		449.5,20.194 463.816,6.921 465.247,8.352 	"/>
</g>
<g id="edit">
	
		<image style="display:none;overflow:visible;" width="800" height="600" xlink:href="gday.jpg"  transform="matrix(0.5161 0 0 0.5161 168 -295)">
	</image>
</g>
<g id="_x34_04_1_">
</g>
<g id="not_found">
	
		<image style="display:none;overflow:visible;" width="400" height="300" xlink:href="shot_1299702014.jpg"  transform="matrix(1 0 0 1 -301.038 56)">
	</image>
</g>
<g id="_x35_00">
	<g id="_x30__x5F_1">
		<path style="fill:#E74C3C;" d="M275.752,148.234c-9.612-6.852-12.75-15.375-11.839-26.113c2.031-23.925,4.515-47.812,6.536-71.737
			c1.045-12.37-3.795-22.381-14.204-29.153c-10.676-6.946-21.886-6.972-32.587-0.089c-10.435,6.712-15.362,16.714-14.34,29.087
			c1.887,22.855,4.003,45.694,6.334,68.508c1.321,12.924-1.992,22.473-13.286,30.865c-39.067,29.027-29.223,76.157-2.763,99.091
			c2.109,1.828,4.528,3.266,7.333,2.097c1.205-0.502,2.063-1.942,2.063-1.942v-31.842l-6.554-6.441L220.698,185h38.001
			l18.731,25.564l-6.43,5.46v32.823c0,0,0.648,1.352,1.824,1.875c3.219,1.433,5.563-0.41,7.866-2.441
			C307.06,225.024,316.416,177.221,275.752,148.234z"/>
		<ellipse style="display:none;fill:#FFFFFF;" cx="243.077" cy="36.188" rx="13.617" ry="12.976"/>
		<g>
			<path style="fill:#E74C3C;" d="M239.875,243.803L239.875,243.803c0,0-13.3-8.095-13.3-21.395c0-13.3,13.3-13.3,13.3-13.3
				s13.3,0,13.3,13.3C253.175,235.708,239.875,243.803,239.875,243.803"/>
			<ellipse style="fill:#FFFFFF;" cx="239.875" cy="222.469" rx="6.313" ry="6.016"/>
		</g>
		<path style="fill:#F7F7F7;" d="M229.071,46.293c0.026-6.54,4.525-11.404,10.654-11.517c6.279-0.116,10.999,4.892,10.978,11.648
			c-0.02,6.628-4.411,11.332-10.648,11.407C233.607,57.908,229.044,53.115,229.071,46.293z"/>
	</g>
	<g id="_x30__x5F_2">
		<polygon style="fill:#E74C3C;" points="348.994,246 317.321,191 348.994,136 412.339,136 444.012,191 412.339,246 		"/>
		<polygon style="display:none;fill:#FFFFFF;" points="363.489,221 346.312,191 363.489,161 397.844,161 415.021,191 397.844,221 		
			"/>
		<circle style="fill:#FFFFFF;" cx="380.667" cy="191" r="31.469"/>
	</g>
	<path style="display:none;fill:none;stroke:#E74C3C;stroke-width:20;stroke-miterlimit:10;" d="M134,145H61v42
		c3.25,3.25,80.75-11.094,80.75,30s-55.375,33.75-80.375,33.75"/>
	<g id="_x35__1_">
		<g id="_x35_">
			<rect x="137" y="130" style="fill:#E74C3C;" width="13" height="32"/>
			<rect x="65" y="231" style="fill:#E74C3C;" width="13" height="29"/>
			<rect x="65" y="133" style="fill:#E74C3C;" width="82" height="25"/>
			<rect x="65" y="133" style="fill:#E74C3C;" width="25" height="60"/>
			<path style="fill:#E74C3C;stroke:#E74C3C;stroke-width:3;stroke-linejoin:round;stroke-miterlimit:10;" d="M66.5,174v19.312
				c1,0,33.692,0.002,33.912,0.006c14.606,0.283,26.463,9.899,26.463,21.719c0,11.861-12.001,21.503-26.677,21.722
				c-0.17,0.003-32.698,0.004-33.698,0.004v19.312c1,0,33.917-0.003,34.25-0.008c27.705-0.429,50.125-18.634,50.125-41.03
				c0-22.35-22.392-40.527-50.019-41.027C100.468,174.004,67.5,174,66.5,174z"/>
		</g>
		<g>
			<circle style="fill:#E74C3C;" cx="79.3" cy="116.875" r="6.125"/>
			<circle style="fill:#E74C3C;" cx="59.3" cy="116.875" r="5"/>
			<circle style="fill:#E74C3C;" cx="99.3" cy="116.875" r="5"/>
			<path style="fill:#E74C3C;" d="M92.912,134c0.002-0.084,0.013-0.166,0.013-0.25c0-7.594-6.156-13.75-13.75-13.75
				s-13.75,6.156-13.75,13.75c0,0.084,0.011,0.166,0.013,0.25H92.912z"/>
			<polygon style="fill:#E74C3C;" points="59,111.875 79,116.875 59,121.875 			"/>
			<polygon style="fill:#E74C3C;" points="99,111.875 79,116.875 99,121.875 			"/>
		</g>
	</g>
</g>
</svg>
