<?xml version="1.0" encoding="iso-8859-1"?>
<!-- Generator: Adobe Illustrator 17.0.0, SVG Export Plug-In . SVG Version: 6.00 Build 0)  -->
<!DOCTYPE svg PUBLIC "-//W3C//DTD SVG 1.1//EN" "http://www.w3.org/Graphics/SVG/1.1/DTD/svg11.dtd">
<svg version="1.1" xmlns="http://www.w3.org/2000/svg" xmlns:xlink="http://www.w3.org/1999/xlink" x="0px" y="0px"
	 width="174.655px" height="225.899px" viewBox="0 0 174.655 225.899" style="enable-background:new 0 0 174.655 225.899;"
	 xml:space="preserve">
<g id="bg">
</g>
<g id="earth">
</g>
<g id="_x34_04">
</g>
<g id="ufo" style="display:none;">
</g>
<g id="house" style="display:none;">
</g>
<g id="ground">
</g>
<g id="sun">
</g>
<g id="cactus">
</g>
<g id="hat">
</g>
<g id="cloth">
</g>
<g id="tie_2_">
</g>
<g id="no_result_text">
</g>
<g id="pencil">
</g>
<g id="koala">
	<g id="body">
	</g>
</g>
<g id="about_us" style="display:none;">
</g>
<g id="send_success">
	<g id="k">
		<g id="email">
			<g id="&#x56FE;&#x5C42;_20">
			</g>
		</g>
	</g>
</g>
<g id="edit">
	<g>
		<path style="fill:#E74C3C;" d="M109.246,197.916c-3.563,0.561-6.153-0.604-7.704-3.618c-6.836,1.975-10.156,6.038-10.386,12.552
			c-0.188,5.334-0.522,5.635-5.864,5.294c-0.291-0.019-0.586,0.017-1.328,0.532c0.986,0.906,1.831,2.1,2.983,2.668
			c5.608,2.765,15.142,0.918,19.385-3.669C109.943,207.77,110.288,203.121,109.246,197.916z"/>
		<path style="fill:#E74C3C;" d="M169.848,36.44c-0.838,3.722-1.354,7.687-2.563,11.13c-13.665,38.931-27.392,77.817-41.217,116.625
			c-2.589,7.267-5.581,14.254-8.587,21.153c-2.111,4.845-4.95,8.323-8.142,10.289c-4.681,2.884-8.246-1.96-7.213-10.593
			c0.643-5.374,1.734-11.274,3.589-16.082c4.838-12.544,9.877-25.025,15.428-36.799c13.762-29.189,27.83-58.002,41.846-86.876
			c1.737-3.578,3.896-6.608,5.86-9.891C169.182,35.745,169.515,36.092,169.848,36.44z"/>
		
			<ellipse transform="matrix(-0.9454 -0.3259 0.3259 -0.9454 246.4519 265.3606)" style="fill:#E74C3C;" cx="145.453" cy="112.037" rx="5.477" ry="6.259"/>
		<path style="fill:#E74C3C;" d="M105.942,90.571c4.426-1.291,13.463-14.57,13.463-14.57s3.689,3.32,7.377,3.689
			c3.689,0.369,11.988-5.717,15.123-12.541c3.135-6.824,1.844-23.423,1.291-25.083c-0.553-1.66-4.98-11.619-12.91-12.541
			c-7.931-0.922-15.492,4.98-15.492,4.98s-8.853-10.697-21.763-14.201c-11.604-3.149-26.927,1.475-26.927,1.475
			C42.499-15.107,17.047,33.213,24.425,49.812c7.377,16.599,19.55,12.541,19.55,12.541c2.213,13.832,13.279,21.209,11.435,22.132
			s-9.087-0.818-16.968-3.873c-7.881-3.055-18.105-25.574-25.298-16.906C6.719,88.542,49.322,102.19,49.322,102.19
			c-4.426,45.554,25.82,50.165,31.538,55.329c0-1.66,16.968,22.5,16.968,22.5s8.115,2.398,12.357-2.213
			c3.504-13.463-6.086-12.726-6.086-12.726c-2.028-7.938-9.959-19.734-9.959-19.734l8.115-6.64
			c11.066,0.553,16.045,10.512,16.045,10.512s9.037-8.053,7.746-13.648c-1.291-5.594-14.754-14.754-14.754-14.754l-1.107-7.931
			c0,0,13.464,4.98,24.898,4.98l5.717-13.463C140.8,104.403,100.594,91.862,105.942,90.571z M93.809,117.985
			c-0.669,2.749-1.8,5.523-4.043,7.36c-2.492,2.041-5.809,2.542-8.908,2.911c-0.406,0.048-0.867,0.165-1.275,0.145
			c-3.122-0.155-6.431-2.077-8.649-4.134c-4.659-4.321-5.81-10.587-5.297-16.698c0.209-2.486,0.645-4.949,1.165-7.388
			c0.332-1.554,0.781-3.084,1.093-4.652c0.163-0.823,0.282-2.481,1.079-3.053c0.178-0.128,0.391-0.202,0.646-0.199
			c0.625,0.006,1.367,0.548,1.918,0.796c0.962,0.432,1.951,0.776,2.973,1.036c2.675,0.681,5.468,1.044,8.202,1.402
			c1.717,0.225,3.442,0.377,5.176,0.364c1.364-0.011,3.953-1.101,5.14-0.246c1.114,0.802,1.015,3.932,1.21,5.225
			c0.404,2.667,0.608,5.364,0.586,8.062C94.8,111.952,94.529,115.028,93.809,117.985z"/>
		<path style="fill:#424242;" d="M84.801,52.746c1.634,0.024,3.333,0.252,4.554,0.884c2.391,1.238,2.887,4.274,3.049,6.748
			c0.194,2.952-0.521,5.842-0.97,8.737c-2.213,14.263-11.312,12.541-11.312,12.541s-11.804-0.492-7.623-16.476
			c1.189-4.546,3.591-11.542,9.142-12.254C82.536,52.812,83.652,52.729,84.801,52.746z"/>
		
			<ellipse transform="matrix(0.9669 0.2552 -0.2552 0.9669 15.7866 -15.2159)" style="display:none;fill:#FFFFFF;" cx="66.522" cy="53.219" rx="1.952" ry="3.068"/>
		
			<ellipse transform="matrix(0.989 0.1482 -0.1482 0.989 9.7839 -14.5186)" style="display:none;fill:#FFFFFF;" cx="102.301" cy="58.383" rx="1.952" ry="3.068"/>
	</g>
</g>
<g id="_x34_04_1_">
</g>
<g id="not_found">
	
		<image style="display:none;overflow:visible;" width="400" height="300" xlink:href="shot_1299702014.jpg"  transform="matrix(1 0 0 1 -112.3829 215)">
	</image>
</g>
<g id="_x35_00">
</g>
</svg>
