<?xml version="1.0" encoding="iso-8859-1"?>
<!-- Generator: Adobe Illustrator 17.0.0, SVG Export Plug-In . SVG Version: 6.00 Build 0)  -->
<!DOCTYPE svg PUBLIC "-//W3C//DTD SVG 1.1//EN" "http://www.w3.org/Graphics/SVG/1.1/DTD/svg11.dtd">
<svg version="1.1" xmlns="http://www.w3.org/2000/svg" xmlns:xlink="http://www.w3.org/1999/xlink" x="0px" y="0px"
	 width="174.655px" height="181.333px" viewBox="0 0 174.655 181.333" style="enable-background:new 0 0 174.655 181.333;"
	 xml:space="preserve">
<g id="bg">
</g>
<g id="earth">
</g>
<g id="_x34_04">
</g>
<g id="ufo" style="display:none;">
</g>
<g id="house" style="display:none;">
</g>
<g id="ground">
</g>
<g id="sun">
</g>
<g id="cactus">
</g>
<g id="hat">
</g>
<g id="cloth">
</g>
<g id="tie_2_">
</g>
<g id="no_result_text">
</g>
<g id="pencil">
</g>
<g id="koala">
	<g id="body">
	</g>
</g>
<g id="about_us" style="display:none;">
</g>
<g id="send_success">
	<g id="k">
		<g id="email">
			<g id="&#x56FE;&#x5C42;_20">
			</g>
		</g>
	</g>
</g>
<g id="edit">
</g>
<g id="_x34_04_1_">
</g>
<g id="not_found">
	
		<image style="display:none;overflow:visible;" width="400" height="300" xlink:href="shot_1299702014.jpg"  transform="matrix(1 0 0 1 -112.038 -55.6667)">
	</image>
	<g>
		<path style="fill:#E74C3C;stroke:#E74C3C;stroke-linecap:round;stroke-linejoin:round;stroke-miterlimit:10;" d="M134.604,97.833
			H41.62c-0.365-2.689-19.388,53.153,27.416,69.473l-14.365,8.596c0,0,23.969-2.855,33.395-2.855s34.712,2.855,34.712,2.855
			l-15.642-9.005C152.148,150.158,134.604,97.833,134.604,97.833z M119.104,140.832c-0.728,5.219-3.089,9.874-6.946,13.481
			c-3.346,3.129-7.355,5.454-11.486,7.383c-0.468,0.218-0.937,0.443-1.407,0.67c0,0-5.86,2.717-11.938,2.717
			c-6.078,0-10.893-2.205-10.893-2.205c-3.391-1.278-6.722-2.823-9.667-4.956c-4.575-3.312-7.668-7.98-9.07-13.436
			c-1.16-4.514-1.294-9.289-0.677-13.896c0.518-3.866,1.591-7.647,3.056-11.267c0.444-1.096,1.28-4.116,2.697-4.826
			c0.225-0.113,0.466-0.167,0.721-0.146c1.114,0.092,2.573,1.36,3.703,1.715c4.26,1.34,8.372,2.728,12.768,3.592
			c2.693,0.529,5.352,0.882,8.101,0.882c4.302,0,8.583-0.726,12.713-1.903c2.394-0.682,4.705-1.613,6.992-2.587
			c1.232-0.524,2.719-1.818,4.125-1.711c1.48,0.112,2.103,2.452,2.707,3.595c1.633,3.087,2.897,6.377,3.715,9.774
			C119.346,131.976,119.713,136.473,119.104,140.832z"/>
		<path style="fill:#E74C3C;stroke:#E74C3C;stroke-linecap:round;stroke-linejoin:round;stroke-miterlimit:10;" d="M129.315,23.783
			c0,0-17.263-18.352-41.371-18.352S46.44,23.783,46.44,23.783L31.5,11.956v59.543c0,0,0.47,14.239,9.78,27.16
			c7.733,10.732,21.316,20.556,46.461,20.556c55.418,0,55.76-49.755,55.76-49.755V11.14L129.315,23.783z M62.113,80.165
			c-10.98,0-19.882-8.901-19.882-19.882s8.901-19.882,19.882-19.882s19.882,8.901,19.882,19.882S73.093,80.165,62.113,80.165z
			 M113.499,80.165c-10.98,0-19.882-8.901-19.882-19.882s8.901-19.882,19.882-19.882s19.882,8.901,19.882,19.882
			S124.479,80.165,113.499,80.165z"/>
	</g>
	
		<polygon style="fill:#424242;stroke:#424242;stroke-width:1.2235;stroke-linecap:round;stroke-linejoin:round;stroke-miterlimit:10;" points="
		88.065,79.248 95.453,86.283 88.065,103.717 80.465,86.588 	"/>
	<path style="fill:none;stroke:#E74C3C;stroke-width:6.1174;stroke-linecap:round;stroke-linejoin:round;stroke-miterlimit:10;" d="
		M50.184,60.284c0,0,2.141,12.235,12.847,12.235s11.929-12.235,11.929-12.235"/>
	<path style="fill:none;stroke:#E74C3C;stroke-width:6.1174;stroke-linecap:round;stroke-linejoin:round;stroke-miterlimit:10;" d="
		M101.57,60.284c0,0,2.141,12.235,12.847,12.235s11.929-12.235,11.929-12.235"/>
</g>
<g id="_x35_00">
</g>
</svg>
