<?xml version="1.0" encoding="iso-8859-1"?>
<!-- Generator: Adobe Illustrator 17.0.0, SVG Export Plug-In . SVG Version: 6.00 Build 0)  -->
<!DOCTYPE svg PUBLIC "-//W3C//DTD SVG 1.1//EN" "http://www.w3.org/Graphics/SVG/1.1/DTD/svg11.dtd">
<svg version="1.1" xmlns="http://www.w3.org/2000/svg" xmlns:xlink="http://www.w3.org/1999/xlink" x="0px" y="0px"
	 width="174.655px" height="225.899px" viewBox="0 0 174.655 225.899" style="enable-background:new 0 0 174.655 225.899;"
	 xml:space="preserve">
<g id="bg">
</g>
<g id="earth">
</g>
<g id="_x34_04">
</g>
<g id="ufo" style="display:none;">
</g>
<g id="house" style="display:none;">
</g>
<g id="ground">
</g>
<g id="sun">
</g>
<g id="cactus">
</g>
<g id="hat">
</g>
<g id="cloth">
</g>
<g id="tie_2_">
</g>
<g id="no_result_text">
</g>
<g id="pencil">
</g>
<g id="koala">
	<g id="body">
	</g>
</g>
<g id="about_us" style="display:none;">
</g>
<g id="send_success">
	<g id="k">
		<g id="email">
			<g id="&#x56FE;&#x5C42;_20">
			</g>
		</g>
		<g id="eye_2_">
			<path style="fill:#FFFFFF;" d="M78.039,3.052c0,2.328-1.73,4.215-3.865,4.215c-2.134,0-3.865-1.887-3.865-4.215"/>
			<path style="fill:#FFFFFF;" d="M117.022,3.052c0,2.328-1.73,4.215-3.865,4.215c-2.134,0-3.865-1.887-3.865-4.215"/>
		</g>
	</g>
	<path style="fill:#FFFFFF;" d="M108.646,172.725c0.195,0.195,0.195,0.512,0,0.707l0,0c-0.195,0.195-0.512,0.195-0.707,0
		l-7.071-7.071c-0.195-0.195-0.195-0.512,0-0.707l0,0c0.195-0.195,0.512-0.195,0.707,0L108.646,172.725z"/>
	<g>
		<defs>
			<path id="XMLID_2_" d="M107.798,211.107c-6.27,1.166-12.403,1.379-18.505,0.217c-2.212-0.421-3.193,0.079-2.975,2.394
				c0.047,0.497,0.039,0.999,0.077,1.497c0.806,10.623,0.806,10.622-9.722,10.622c-17.665,0-35.33,0.011-52.995-0.008
				c-4.66-0.005-5.838-1.845-3.937-6.115c1.812-4.071,5.48-5.734,9.435-6.655c9.051-2.107,18.219-1.496,27.331-0.496
				c7.148,0.785,8.935-0.872,7.657-7.856c-1.052-5.748-4.543-9.592-9.768-11.768c-7.059-2.939-14.312-5.416-21.339-8.423
				C4.714,172.391-7.445,137.306,7.188,110.214c3.132-5.798,7.363-10.738,12.277-15.01c8.045-6.994,11.752-15.152,8.025-25.729
				c-1.365-3.873,0.956-3.85,3.559-3.227c5.209,1.248,9.693,7.657,10.092,14.188c0.496,8.112-2.855,14.915-7.319,21.295
				c-5.086,7.269-9.836,14.671-11.236,23.678c-0.774,4.984-1.068,9.972,0.692,14.805c1.545,4.241,4.384,6.99,9.193,7.189
				c4.744,0.197,8.221-1.838,9.723-6.271c5.29-15.615,14.297-29.208,22.747-43.158c11.217-18.518,11.83-38.385,6.377-58.852
				c-0.643-2.413-1.713-3.053-4.075-3.238c-7.474-0.587-14.376-2.884-19.835-8.299c-3.831-3.8-3.578-4.666,1.214-6.843
				c3.821-1.735,7.858-2.825,11.95-3.471c2.939-0.464,3.035-1.439,2.029-3.885c-1.324-3.218-2.222-6.617-3.201-9.969
				c-0.891-3.049,0.405-3.881,3.315-3.194c8.326,1.966,15.751,5.5,21.036,12.472c1.635,2.156,3.475,3.197,6.094,3.73
				c20.372,4.142,40.697,8.514,61.079,12.608c4.165,0.837,5.82,1.937,4.352,6.699c-3.836,12.447-11.309,18.592-24.783,19.208
				c-3.989,0.182-8.001,0.215-11.985-0.008c-2.96-0.165-3.575,0.989-3.534,3.742c0.272,18.325,5.831,34.602,17.939,48.576
				c8.601,9.927,15.466,20.875,18.066,34.013c3.019,15.259-0.498,29.44-7.611,42.869c-3.579,6.757-7.761,13.192-11.507,19.865
				c-1.264,2.251-3.18,4.894-1.339,7.41c1.813,2.477,4.868,1.412,7.479,1.154c9.3-0.919,18.627-1.654,27.819,0.59
				c4.455,1.088,8.529,3.069,9.587,8.321c0.556,2.761,0.147,4.423-3.319,4.408c-20.498-0.093-40.996-0.105-61.494,0.016
				c-3.132,0.018-3.637-1.131-3.144-3.844C108.102,218.479,108.509,214.854,107.798,211.107z"/>
		</defs>
		<use xlink:href="#XMLID_2_"  style="overflow:visible;fill:#E74C3C;"/>
		<clipPath id="XMLID_7_">
			<use xlink:href="#XMLID_2_"  style="overflow:visible;"/>
		</clipPath>
		<ellipse style="clip-path:url(#XMLID_7_);fill:#424242;" cx="153.565" cy="32.499" rx="5.525" ry="4.044"/>
	</g>
	<path style="fill:#FFFFFF;" d="M79.495,188.15c4.748-2.905,10.473-4.602,16.636-4.602s11.889,1.697,16.636,4.602
		c11.57-5.257,19.684-15.819,20.429-28.162c-1.422,0.448-3.012,0.953-4.595,1.463c-4.744,1.529-9.391,3.09-9.391,3.09
		c-3.954,0.897-8.954-0.008-9.954-4.531c-1-2.714,3-5.202,5-7.011c5.322-4.012,9.86-5.358,16.037-8.035
		c-5.66-12.005-18.823-20.42-34.162-20.42c-9.696,0-18.521,3.366-25.133,8.872c2.064,1.823,3.984,3.848,6.008,5.109
		c4.173,3.055,6.75,4.945,6.75,4.945c5.425,4.708,3.5,14.731-2.5,12.922c-7.396-1.825-14.781-5.293-19.745-10.39
		c-1.612,3.763-2.505,7.849-2.505,12.127C59.007,171.263,67.348,182.63,79.495,188.15z"/>
	<g>
		<path style="fill:#E74C3C;" d="M111.382,150.71h-29.25c-1.864,0-3.375,1.511-3.375,3.375v20.25c0,1.863,1.511,3.375,3.375,3.375
			h29.25c1.864,0,3.375-1.512,3.375-3.375v-20.25C114.757,152.221,113.246,150.71,111.382,150.71z"/>
		
			<line style="fill:#E74C3C;stroke:#FFFFFF;stroke-width:1.5;stroke-linecap:round;stroke-linejoin:round;stroke-miterlimit:10;" x1="81.841" y1="174.449" x2="91.12" y2="165.169"/>
		
			<line style="fill:#E74C3C;stroke:#FFFFFF;stroke-width:1.5;stroke-linecap:round;stroke-linejoin:round;stroke-miterlimit:10;" x1="112.12" y1="174.449" x2="102.841" y2="165.169"/>
		
			<polyline style="fill:#E74C3C;stroke:#FFFFFF;stroke-width:2;stroke-linecap:round;stroke-linejoin:round;stroke-miterlimit:10;" points="
			81.797,153.009 96.757,166.293 111.03,153.32 		"/>
	</g>
</g>
<g id="edit">
</g>
<g id="_x34_04_1_">
</g>
<g id="not_found">
</g>
<g id="_x35_00">
</g>
<g id="header">
</g>
</svg>
