<svg xmlns="http://www.w3.org/2000/svg" xmlns:xlink="http://www.w3.org/1999/xlink" width="480" height="375" viewBox="0 0 480 375"><path d="M81.5 216.619c0-5.589 5.707-10.119 13-10.119s13 4.53 13 10.119v132.762c0 5.589-5.707 10.119-13 10.119s-13-4.53-13-10.119V216.619z" fill="#e74c3c" stroke="#fff" stroke-width="3" stroke-linecap="round" stroke-linejoin="round" stroke-miterlimit="10"/><defs><path id="a" d="M28.951 322.5c-4.617 0-8.36-5.707-8.36-13s3.743-13 8.36-13H138.64c4.617 0 8.36 5.707 8.36 13s-3.743 13-8.36 13H28.951z"/></defs><use xlink:href="#a" overflow="visible" fill="#e74c3c"/><use xlink:href="#a" overflow="visible" fill="none" stroke="#fff" stroke-width="3" stroke-linecap="round" stroke-linejoin="round" stroke-miterlimit="10"/><defs><path id="b" d="M37.413 319.454c-2.917 4.252-10.157 4.354-16.171.228-6.014-4.126-8.524-10.917-5.607-15.169l69.301-101.008c2.917-4.252 10.157-4.354 16.171-.228 6.014 4.126 8.524 10.917 5.607 15.169L37.413 319.454z"/></defs><use xlink:href="#b" overflow="visible" fill="#e74c3c"/><clipPath id="c"><use xlink:href="#b" overflow="visible"/></clipPath><use xlink:href="#b" overflow="visible" fill="none" stroke="#fff" stroke-width="3" stroke-linecap="round" stroke-linejoin="round" stroke-miterlimit="10"/><g><path d="M401.5 216.619c0-5.589 5.707-10.119 13-10.119s13 4.53 13 10.119v132.762c0 5.589-5.707 10.119-13 10.119s-13-4.53-13-10.119V216.619z" fill="#e74c3c" stroke="#fff" stroke-width="3" stroke-linecap="round" stroke-linejoin="round" stroke-miterlimit="10"/><defs><path id="d" d="M348.951 322.5c-4.617 0-8.36-5.707-8.36-13s3.743-13 8.36-13H458.64c4.617 0 8.36 5.707 8.36 13s-3.743 13-8.36 13H348.951z"/></defs><use xlink:href="#d" overflow="visible" fill="#e74c3c"/><use xlink:href="#d" overflow="visible" fill="none" stroke="#fff" stroke-width="3" stroke-linecap="round" stroke-linejoin="round" stroke-miterlimit="10"/><g><defs><path id="e" d="M357.413 319.454c-2.917 4.252-10.157 4.354-16.171.228-6.014-4.126-8.524-10.917-5.607-15.169l69.301-101.008c2.917-4.252 10.157-4.354 16.171-.228 6.014 4.126 8.524 10.917 5.607 15.169l-69.301 101.008z"/></defs><use xlink:href="#e" overflow="visible" fill="#e74c3c"/><clipPath id="f"><use xlink:href="#e" overflow="visible"/></clipPath><use xlink:href="#e" overflow="visible" fill="none" stroke="#fff" stroke-width="3" stroke-linecap="round" stroke-linejoin="round" stroke-miterlimit="10"/></g></g><g><defs><circle id="g" cx="241.97" cy="279.883" r="77.447"/></defs><use xlink:href="#g" overflow="visible" fill="#e74c3c"/><clipPath id="h"><use xlink:href="#g" overflow="visible"/></clipPath><circle cx="241.97" cy="279.883" r="52.45" clip-path="url(#h)" fill="#fff"/><use xlink:href="#g" overflow="visible" fill="none" stroke="#fff" stroke-width="3" stroke-linecap="round" stroke-linejoin="round" stroke-miterlimit="10"/></g><linearGradient id="i" gradientUnits="userSpaceOnUse" x1="241.97" y1="221.533" x2="241.97" y2="119"><stop offset="0" stop-color="#fff"/><stop offset="1" stop-color="#e74c3c" stop-opacity=".8"/></linearGradient><path d="M215 119.58s1.652-.58 27.992-.58h26.341l31.198 102.533s-30.414-16.621-58.532-16.621-58.591 16.569-58.591 16.569L215 119.58z" fill="url(#i)"/><g fill="none" stroke="#e74c3c" stroke-width="14" stroke-linecap="round" stroke-linejoin="round" stroke-miterlimit="10"><path d="M242.014 89.193c-38.654 0-64.423-14.085-64.423-14.085s28.53-48.727 64.423-48.727 64.423 48.727 64.423 48.727-25.769 14.085-64.423 14.085z"/><path d="M288.105 51.904C276.455 38.535 260.182 25 242.014 25c-18.161 0-34.429 13.526-46.079 26.89-45.541 5.162-77.705 17.754-77.705 32.471 0 19.315 55.396 34.972 123.732 34.972 68.335 0 123.731-15.658 123.731-34.972.001-14.704-32.109-27.287-77.588-32.457z"/></g><g><path d="M233.239 179.347l-11.772-6.616 8.27-14.715-1.289-4.597 15.364-7.024 17.799 10.003 2.153 16.869-4.339.83-8.528 15.174-11.772-6.616s-5.521-10.848-2.213-16.734c3.308-5.886 9.194-2.578 9.194-2.578s5.886 3.308 2.578 9.194c-3.308 5.886-15.445 6.81-15.445 6.81z" fill="none" stroke="#e74c3c" stroke-width="2.934" stroke-linecap="round" stroke-linejoin="round" stroke-miterlimit="10"/><ellipse transform="rotate(29.332 243 168.567)" cx="242.99" cy="168.538" rx="3.205" ry="3.054" fill="#e74c3c"/></g></svg>