<svg xmlns="http://www.w3.org/2000/svg" width="480" height="281" viewBox="0 0 480 281"><path d="M275.752 148.234c-9.612-6.852-12.75-15.375-11.839-26.113 2.031-23.925 4.515-47.812 6.536-71.737 1.045-12.37-3.795-22.381-14.204-29.153-10.676-6.946-21.886-6.972-32.587-.089-10.435 6.712-15.362 16.714-14.34 29.087a3538.682 3538.682 0 0 0 6.334 68.508c1.321 12.924-1.992 22.473-13.286 30.865-39.067 29.027-29.223 76.157-2.763 99.091 2.109 1.828 4.528 3.266 7.333 2.097 1.205-.502 2.063-1.942 2.063-1.942v-31.842l-6.554-6.441L220.698 185h38.001l18.731 25.564-6.43 5.46v32.823s.648 1.352 1.824 1.875c3.219 1.433 5.563-.41 7.866-2.441 26.37-23.257 35.726-71.06-4.938-100.047z" fill="#e74c3c"/><path d="M239.875 243.803s-13.3-8.095-13.3-21.395c0-13.3 13.3-13.3 13.3-13.3s13.3 0 13.3 13.3-13.3 21.395-13.3 21.395" fill="#e74c3c"/><ellipse cx="239.875" cy="222.469" rx="6.313" ry="6.016" fill="#fff"/><path d="M229.071 46.293c.026-6.54 4.525-11.404 10.654-11.517 6.279-.116 10.999 4.892 10.978 11.648-.02 6.628-4.411 11.332-10.648 11.407-6.448.077-11.011-4.716-10.984-11.538z" fill="#f7f7f7"/><g><path fill="#e74c3c" d="M348.994 246l-31.673-55 31.673-55h63.345l31.673 55-31.673 55z"/><circle cx="380.667" cy="191" r="31.469" fill="#fff"/></g><g fill="#e74c3c"><path d="M137 130h13v32h-13zM65 231h13v29H65z"/><path d="M65 133h82v25H65z"/><path d="M65 133h25v60H65z"/><path d="M66.5 174v19.312c1 0 33.692.002 33.912.006 14.606.283 26.463 9.899 26.463 21.719 0 11.861-12.001 21.503-26.677 21.722-.17.003-32.698.004-33.698.004v19.312c1 0 33.917-.003 34.25-.008 27.705-.429 50.125-18.634 50.125-41.03 0-22.35-22.392-40.527-50.019-41.027-.388-.006-33.356-.01-34.356-.01z" stroke="#e74c3c" stroke-width="3" stroke-linejoin="round" stroke-miterlimit="10"/><g><circle cx="79.3" cy="116.875" r="6.125"/><circle cx="59.3" cy="116.875" r="5"/><circle cx="99.3" cy="116.875" r="5"/><path d="M92.912 134c.002-.084.013-.166.013-.25 0-7.594-6.156-13.75-13.75-13.75s-13.75 6.156-13.75 13.75c0 .084.011.166.013.25h27.474zM59 111.875l20 5-20 5zM99 111.875l-20 5 20 5z"/></g></g></svg>