<svg xmlns="http://www.w3.org/2000/svg" width="174.655" height="225.899" viewBox="0 0 174.655 225.899"><path d="M109.246 197.916c-3.563.561-6.153-.604-7.704-3.618-6.836 1.975-10.156 6.038-10.386 12.552-.188 5.334-.522 5.635-5.864 5.294-.291-.019-.586.017-1.328.532.986.906 1.831 2.1 2.983 2.668 5.608 2.765 15.142.918 19.385-3.669 3.611-3.905 3.956-8.554 2.914-13.759z" fill="#e74c3c"/><path d="M169.848 36.44c-.838 3.722-1.354 7.687-2.563 11.13a26584.85 26584.85 0 0 1-41.217 116.625c-2.589 7.267-5.581 14.254-8.587 21.153-2.111 4.845-4.95 8.323-8.142 10.289-4.681 2.884-8.246-1.96-7.213-10.593.643-5.374 1.734-11.274 3.589-16.082 4.838-12.544 9.877-25.025 15.428-36.799 13.762-29.189 27.83-58.002 41.846-86.876 1.737-3.578 3.896-6.608 5.86-9.891l.999 1.044z" fill="#e74c3c"/><ellipse transform="rotate(-160.979 145.453 112.037)" cx="145.453" cy="112.037" rx="5.477" ry="6.259" fill="#e74c3c"/><path d="M105.942 90.571c4.426-1.291 13.463-14.57 13.463-14.57s3.689 3.32 7.377 3.689c3.689.369 11.988-5.717 15.123-12.541 3.135-6.824 1.844-23.423 1.291-25.083-.553-1.66-4.98-11.619-12.91-12.541-7.931-.922-15.492 4.98-15.492 4.98s-8.853-10.697-21.763-14.201c-11.604-3.149-26.927 1.475-26.927 1.475-23.605-36.886-49.057 11.434-41.679 28.033 7.377 16.599 19.55 12.541 19.55 12.541 2.213 13.832 13.279 21.209 11.435 22.132s-9.087-.818-16.968-3.873-18.105-25.574-25.298-16.906C6.719 88.542 49.322 102.19 49.322 102.19c-4.426 45.554 25.82 50.165 31.538 55.329 0-1.66 16.968 22.5 16.968 22.5s8.115 2.398 12.357-2.213c3.504-13.463-6.086-12.726-6.086-12.726-2.028-7.938-9.959-19.734-9.959-19.734l8.115-6.64c11.066.553 16.045 10.512 16.045 10.512s9.037-8.053 7.746-13.648c-1.291-5.594-14.754-14.754-14.754-14.754l-1.107-7.931s13.464 4.98 24.898 4.98l5.717-13.463c0 .001-40.206-12.54-34.858-13.831zm-12.133 27.414c-.669 2.749-1.8 5.523-4.043 7.36-2.492 2.041-5.809 2.542-8.908 2.911-.406.048-.867.165-1.275.145-3.122-.155-6.431-2.077-8.649-4.134-4.659-4.321-5.81-10.587-5.297-16.698.209-2.486.645-4.949 1.165-7.388.332-1.554.781-3.084 1.093-4.652.163-.823.282-2.481 1.079-3.053.178-.128.391-.202.646-.199.625.006 1.367.548 1.918.796.962.432 1.951.776 2.973 1.036 2.675.681 5.468 1.044 8.202 1.402 1.717.225 3.442.377 5.176.364 1.364-.011 3.953-1.101 5.14-.246 1.114.802 1.015 3.932 1.21 5.225.404 2.667.608 5.364.586 8.062-.025 3.036-.296 6.112-1.016 9.069z" fill="#e74c3c"/><path d="M84.801 52.746c1.634.024 3.333.252 4.554.884 2.391 1.238 2.887 4.274 3.049 6.748.194 2.952-.521 5.842-.97 8.737-2.213 14.263-11.312 12.541-11.312 12.541s-11.804-.492-7.623-16.476c1.189-4.546 3.591-11.542 9.142-12.254a22.942 22.942 0 0 1 3.16-.18z" fill="#424242"/></svg>