<svg xmlns="http://www.w3.org/2000/svg" width="174.655" height="181.333" viewBox="0 0 174.655 181.333"><g stroke-linecap="round" stroke-linejoin="round" stroke-miterlimit="10"><g fill="#e74c3c" stroke="#e74c3c"><path d="M134.604 97.833H41.62c-.365-2.689-19.388 53.153 27.416 69.473l-14.365 8.596s23.969-2.855 33.395-2.855 34.712 2.855 34.712 2.855l-15.642-9.005c45.012-16.739 27.468-69.064 27.468-69.064zm-15.5 42.999c-.728 5.219-3.089 9.874-6.946 13.481-3.346 3.129-7.355 5.454-11.486 7.383-.468.218-.937.443-1.407.67 0 0-5.86 2.717-11.938 2.717s-10.893-2.205-10.893-2.205c-3.391-1.278-6.722-2.823-9.667-4.956-4.575-3.312-7.668-7.98-9.07-13.436-1.16-4.514-1.294-9.289-.677-13.896.518-3.866 1.591-7.647 3.056-11.267.444-1.096 1.28-4.116 2.697-4.826a1.34 1.34 0 0 1 .721-.146c1.114.092 2.573 1.36 3.703 1.715 4.26 1.34 8.372 2.728 12.768 3.592 2.693.529 5.352.882 8.101.882 4.302 0 8.583-.726 12.713-1.903 2.394-.682 4.705-1.613 6.992-2.587 1.232-.524 2.719-1.818 4.125-1.711 1.48.112 2.103 2.452 2.707 3.595a41.959 41.959 0 0 1 3.715 9.774c1.028 4.268 1.395 8.765.786 13.124z"/><path d="M129.315 23.783S112.052 5.431 87.944 5.431 46.44 23.783 46.44 23.783L31.5 11.956v59.543s.47 14.239 9.78 27.16c7.733 10.732 21.316 20.556 46.461 20.556 55.418 0 55.76-49.755 55.76-49.755V11.14l-14.186 12.643zM62.113 80.165c-10.98 0-19.882-8.901-19.882-19.882s8.901-19.882 19.882-19.882 19.882 8.901 19.882 19.882-8.902 19.882-19.882 19.882zm51.386 0c-10.98 0-19.882-8.901-19.882-19.882s8.901-19.882 19.882-19.882 19.882 8.901 19.882 19.882-8.902 19.882-19.882 19.882z"/></g><path fill="#424242" stroke="#424242" stroke-width="1.224" d="M88.065 79.248l7.388 7.035-7.388 17.434-7.6-17.129z"/><path d="M50.184 60.284s2.141 12.235 12.847 12.235S74.96 60.284 74.96 60.284M101.57 60.284s2.141 12.235 12.847 12.235 11.929-12.235 11.929-12.235" fill="none" stroke="#e74c3c" stroke-width="6.117"/></g></svg>