<svg xmlns="http://www.w3.org/2000/svg" xmlns:xlink="http://www.w3.org/1999/xlink" width="174.655" height="225.899" viewBox="0 0 174.655 225.899"><g fill="#fff"><path d="M78.039 3.052c0 2.328-1.73 4.215-3.865 4.215-2.134 0-3.865-1.887-3.865-4.215M117.022 3.052c0 2.328-1.73 4.215-3.865 4.215-2.134 0-3.865-1.887-3.865-4.215"/></g><path d="M108.646 172.725a.5.5 0 0 1-.707.707l-7.071-7.071a.5.5 0 0 1 .707-.707l7.071 7.071z" fill="#fff"/><defs><path id="a" d="M107.798 211.107c-6.27 1.166-12.403 1.379-18.505.217-2.212-.421-3.193.079-2.975 2.394.047.497.039.999.077 1.497.806 10.623.806 10.622-9.722 10.622-17.665 0-35.33.011-52.995-.008-4.66-.005-5.838-1.845-3.937-6.115 1.812-4.071 5.48-5.734 9.435-6.655 9.051-2.107 18.219-1.496 27.331-.496 7.148.785 8.935-.872 7.657-7.856-1.052-5.748-4.543-9.592-9.768-11.768-7.059-2.939-14.312-5.416-21.339-8.423-28.343-12.125-40.502-47.21-25.869-74.302 3.132-5.798 7.363-10.738 12.277-15.01 8.045-6.994 11.752-15.152 8.025-25.729-1.365-3.873.956-3.85 3.559-3.227 5.209 1.248 9.693 7.657 10.092 14.188.496 8.112-2.855 14.915-7.319 21.295-5.086 7.269-9.836 14.671-11.236 23.678-.774 4.984-1.068 9.972.692 14.805 1.545 4.241 4.384 6.99 9.193 7.189 4.744.197 8.221-1.838 9.723-6.271 5.29-15.615 14.297-29.208 22.747-43.158 11.217-18.518 11.83-38.385 6.377-58.852-.643-2.413-1.713-3.053-4.075-3.238-7.474-.587-14.376-2.884-19.835-8.299-3.831-3.8-3.578-4.666 1.214-6.843 3.821-1.735 7.858-2.825 11.95-3.471 2.939-.464 3.035-1.439 2.029-3.885-1.324-3.218-2.222-6.617-3.201-9.969-.891-3.049.405-3.881 3.315-3.194 8.326 1.966 15.751 5.5 21.036 12.472 1.635 2.156 3.475 3.197 6.094 3.73 20.372 4.142 40.697 8.514 61.079 12.608 4.165.837 5.82 1.937 4.352 6.699-3.836 12.447-11.309 18.592-24.783 19.208-3.989.182-8.001.215-11.985-.008-2.96-.165-3.575.989-3.534 3.742.272 18.325 5.831 34.602 17.939 48.576 8.601 9.927 15.466 20.875 18.066 34.013 3.019 15.259-.498 29.44-7.611 42.869-3.579 6.757-7.761 13.192-11.507 19.865-1.264 2.251-3.18 4.894-1.339 7.41 1.813 2.477 4.868 1.412 7.479 1.154 9.3-.919 18.627-1.654 27.819.59 4.455 1.088 8.529 3.069 9.587 8.321.556 2.761.147 4.423-3.319 4.408a5890.246 5890.246 0 0 0-61.494.016c-3.132.018-3.637-1.131-3.144-3.844.652-3.573 1.059-7.198.348-10.945z"/></defs><use xlink:href="#a" overflow="visible" fill="#e74c3c"/><clipPath id="b"><use xlink:href="#a" overflow="visible"/></clipPath><ellipse cx="153.565" cy="32.499" rx="5.525" ry="4.044" clip-path="url(#b)" fill="#424242"/><path d="M79.495 188.15c4.748-2.905 10.473-4.602 16.636-4.602s11.889 1.697 16.636 4.602c11.57-5.257 19.684-15.819 20.429-28.162-1.422.448-3.012.953-4.595 1.463-4.744 1.529-9.391 3.09-9.391 3.09-3.954.897-8.954-.008-9.954-4.531-1-2.714 3-5.202 5-7.011 5.322-4.012 9.86-5.358 16.037-8.035-5.66-12.005-18.823-20.42-34.162-20.42-9.696 0-18.521 3.366-25.133 8.872 2.064 1.823 3.984 3.848 6.008 5.109 4.173 3.055 6.75 4.945 6.75 4.945 5.425 4.708 3.5 14.731-2.5 12.922-7.396-1.825-14.781-5.293-19.745-10.39a30.685 30.685 0 0 0-2.505 12.127c.001 13.134 8.342 24.501 20.489 30.021z" fill="#fff"/><g fill="#e74c3c"><path d="M111.382 150.71h-29.25a3.375 3.375 0 0 0-3.375 3.375v20.25a3.376 3.376 0 0 0 3.375 3.375h29.25a3.376 3.376 0 0 0 3.375-3.375v-20.25a3.375 3.375 0 0 0-3.375-3.375z"/><path stroke="#fff" stroke-width="1.5" stroke-linecap="round" stroke-linejoin="round" stroke-miterlimit="10" d="M81.841 174.449l9.279-9.28M112.12 174.449l-9.279-9.28"/><path stroke="#fff" stroke-width="2" stroke-linecap="round" stroke-linejoin="round" stroke-miterlimit="10" d="M81.797 153.009l14.96 13.284 14.273-12.973"/></g></svg>